<mxfile host="Electron" modified="2024-04-16T13:00:44.595Z" agent="Mozilla/5.0 (Windows NT 10.0; Win64; x64) AppleWebKit/537.36 (KHTML, like Gecko) draw.io/24.2.5 Chrome/120.0.6099.109 Electron/28.1.0 Safari/537.36" etag="wf4dPIVAN8Lw_-mxmW7K" version="24.2.5" type="device">
  <diagram name="PÃ¡gina-1" id="M7Lu23Wvv8A5Akc-cAFW">
    <mxGraphModel dx="1843" dy="887" grid="1" gridSize="10" guides="1" tooltips="1" connect="1" arrows="1" fold="1" page="1" pageScale="1" pageWidth="827" pageHeight="1169" math="0" shadow="0">
      <root>
        <mxCell id="0" />
        <mxCell id="1" parent="0" />
        <mxCell id="QTkmuYOU0vNZ0ToTAlN7-1" value="Inicio" style="ellipse;whiteSpace=wrap;html=1;" vertex="1" parent="1">
          <mxGeometry x="354" y="20" width="120" height="80" as="geometry" />
        </mxCell>
        <mxCell id="QTkmuYOU0vNZ0ToTAlN7-2" value="Escribir &quot;Ingrese el largo y el alto&quot;" style="shape=parallelogram;perimeter=parallelogramPerimeter;whiteSpace=wrap;html=1;fixedSize=1;" vertex="1" parent="1">
          <mxGeometry x="307" y="140" width="206" height="60" as="geometry" />
        </mxCell>
        <mxCell id="QTkmuYOU0vNZ0ToTAlN7-3" value="" style="endArrow=classic;html=1;rounded=0;entryX=0.5;entryY=0;entryDx=0;entryDy=0;" edge="1" parent="1" target="QTkmuYOU0vNZ0ToTAlN7-2">
          <mxGeometry width="50" height="50" relative="1" as="geometry">
            <mxPoint x="410" y="100" as="sourcePoint" />
            <mxPoint x="460" y="50" as="targetPoint" />
          </mxGeometry>
        </mxCell>
        <mxCell id="QTkmuYOU0vNZ0ToTAlN7-4" value="" style="endArrow=classic;html=1;rounded=0;" edge="1" parent="1">
          <mxGeometry width="50" height="50" relative="1" as="geometry">
            <mxPoint x="409.5" y="200" as="sourcePoint" />
            <mxPoint x="409.5" y="260" as="targetPoint" />
          </mxGeometry>
        </mxCell>
        <mxCell id="QTkmuYOU0vNZ0ToTAlN7-5" value="Leer largo&lt;div&gt;Leer alto&lt;/div&gt;" style="shape=parallelogram;perimeter=parallelogramPerimeter;whiteSpace=wrap;html=1;fixedSize=1;" vertex="1" parent="1">
          <mxGeometry x="350" y="260" width="120" height="60" as="geometry" />
        </mxCell>
        <mxCell id="QTkmuYOU0vNZ0ToTAlN7-6" value="" style="endArrow=classic;html=1;rounded=0;" edge="1" parent="1">
          <mxGeometry width="50" height="50" relative="1" as="geometry">
            <mxPoint x="409.5" y="320" as="sourcePoint" />
            <mxPoint x="410" y="370" as="targetPoint" />
          </mxGeometry>
        </mxCell>
        <mxCell id="QTkmuYOU0vNZ0ToTAlN7-19" value="area= largo*alto" style="rounded=0;whiteSpace=wrap;html=1;" vertex="1" parent="1">
          <mxGeometry x="350" y="370" width="120" height="60" as="geometry" />
        </mxCell>
        <mxCell id="QTkmuYOU0vNZ0ToTAlN7-20" value="" style="endArrow=classic;html=1;rounded=0;" edge="1" parent="1">
          <mxGeometry width="50" height="50" relative="1" as="geometry">
            <mxPoint x="410" y="430" as="sourcePoint" />
            <mxPoint x="410" y="490" as="targetPoint" />
          </mxGeometry>
        </mxCell>
        <mxCell id="QTkmuYOU0vNZ0ToTAlN7-21" value="perimetro= 2*(l+a)" style="rounded=0;whiteSpace=wrap;html=1;" vertex="1" parent="1">
          <mxGeometry x="350" y="490" width="120" height="60" as="geometry" />
        </mxCell>
        <mxCell id="QTkmuYOU0vNZ0ToTAlN7-22" value="" style="endArrow=classic;html=1;rounded=0;" edge="1" parent="1">
          <mxGeometry width="50" height="50" relative="1" as="geometry">
            <mxPoint x="410" y="550" as="sourcePoint" />
            <mxPoint x="410" y="620.7999877929688" as="targetPoint" />
          </mxGeometry>
        </mxCell>
        <mxCell id="QTkmuYOU0vNZ0ToTAlN7-23" value="largo = ancho" style="rhombus;whiteSpace=wrap;html=1;" vertex="1" parent="1">
          <mxGeometry x="365" y="620" width="90" height="80" as="geometry" />
        </mxCell>
        <mxCell id="QTkmuYOU0vNZ0ToTAlN7-24" value="" style="endArrow=classic;html=1;rounded=0;exitX=1;exitY=0.5;exitDx=0;exitDy=0;" edge="1" parent="1" source="QTkmuYOU0vNZ0ToTAlN7-23">
          <mxGeometry width="50" height="50" relative="1" as="geometry">
            <mxPoint x="503" y="659.5" as="sourcePoint" />
            <mxPoint x="513" y="659.5" as="targetPoint" />
          </mxGeometry>
        </mxCell>
        <mxCell id="QTkmuYOU0vNZ0ToTAlN7-26" value="Escribir &quot;La figura es un cuadrado&quot;&amp;nbsp;" style="shape=parallelogram;perimeter=parallelogramPerimeter;whiteSpace=wrap;html=1;fixedSize=1;" vertex="1" parent="1">
          <mxGeometry x="500" y="630" width="160" height="60" as="geometry" />
        </mxCell>
        <mxCell id="QTkmuYOU0vNZ0ToTAlN7-27" value="Si" style="text;html=1;align=center;verticalAlign=middle;whiteSpace=wrap;rounded=0;" vertex="1" parent="1">
          <mxGeometry x="430" y="630" width="60" height="30" as="geometry" />
        </mxCell>
        <mxCell id="QTkmuYOU0vNZ0ToTAlN7-28" value="No" style="text;html=1;align=center;verticalAlign=middle;whiteSpace=wrap;rounded=0;" vertex="1" parent="1">
          <mxGeometry x="330" y="630" width="60" height="30" as="geometry" />
        </mxCell>
        <mxCell id="QTkmuYOU0vNZ0ToTAlN7-29" value="" style="endArrow=classic;html=1;rounded=0;exitX=0.598;exitY=1.035;exitDx=0;exitDy=0;exitPerimeter=0;" edge="1" parent="1" source="QTkmuYOU0vNZ0ToTAlN7-28">
          <mxGeometry width="50" height="50" relative="1" as="geometry">
            <mxPoint x="370" y="660" as="sourcePoint" />
            <mxPoint x="310" y="660" as="targetPoint" />
          </mxGeometry>
        </mxCell>
        <mxCell id="QTkmuYOU0vNZ0ToTAlN7-30" value="Escribir &quot;La figura es un rectangulo&quot;" style="shape=parallelogram;perimeter=parallelogramPerimeter;whiteSpace=wrap;html=1;fixedSize=1;" vertex="1" parent="1">
          <mxGeometry x="140" y="630" width="180" height="60" as="geometry" />
        </mxCell>
        <mxCell id="QTkmuYOU0vNZ0ToTAlN7-31" value="Fin" style="ellipse;whiteSpace=wrap;html=1;" vertex="1" parent="1">
          <mxGeometry x="350" y="890" width="120" height="80" as="geometry" />
        </mxCell>
        <mxCell id="QTkmuYOU0vNZ0ToTAlN7-32" value="" style="endArrow=classic;html=1;rounded=0;exitX=0.5;exitY=1;exitDx=0;exitDy=0;" edge="1" parent="1" source="QTkmuYOU0vNZ0ToTAlN7-30">
          <mxGeometry width="50" height="50" relative="1" as="geometry">
            <mxPoint x="210" y="690" as="sourcePoint" />
            <mxPoint x="330" y="760" as="targetPoint" />
            <Array as="points">
              <mxPoint x="230" y="760" />
            </Array>
          </mxGeometry>
        </mxCell>
        <mxCell id="QTkmuYOU0vNZ0ToTAlN7-33" value="" style="endArrow=classic;html=1;rounded=0;exitX=0.5;exitY=1;exitDx=0;exitDy=0;entryX=1;entryY=0.5;entryDx=0;entryDy=0;" edge="1" parent="1" source="QTkmuYOU0vNZ0ToTAlN7-26" target="QTkmuYOU0vNZ0ToTAlN7-35">
          <mxGeometry width="50" height="50" relative="1" as="geometry">
            <mxPoint x="610" y="690" as="sourcePoint" />
            <mxPoint x="510" y="760" as="targetPoint" />
            <Array as="points">
              <mxPoint x="580" y="760" />
            </Array>
          </mxGeometry>
        </mxCell>
        <mxCell id="QTkmuYOU0vNZ0ToTAlN7-35" value="Mostrar perimetro y area" style="shape=parallelogram;perimeter=parallelogramPerimeter;whiteSpace=wrap;html=1;fixedSize=1;" vertex="1" parent="1">
          <mxGeometry x="334" y="730" width="160" height="60" as="geometry" />
        </mxCell>
        <mxCell id="QTkmuYOU0vNZ0ToTAlN7-36" value="" style="endArrow=classic;html=1;rounded=0;" edge="1" parent="1">
          <mxGeometry width="50" height="50" relative="1" as="geometry">
            <mxPoint x="410" y="790" as="sourcePoint" />
            <mxPoint x="410" y="890" as="targetPoint" />
          </mxGeometry>
        </mxCell>
      </root>
    </mxGraphModel>
  </diagram>
</mxfile>
